<svg xmlns="http://www.w3.org/2000/svg" width="920" height="240" viewBox="0 0 920 240" fill="none">
  <rect width="920" height="240" rx="32" fill="#0A0C10"/>
  <!-- Mark -->
  <g transform="translate(48 40) scale(0.625)">
    <circle cx="104" cy="104" r="100" fill="#F7931A"/>
    <text x="104" y="145" text-anchor="middle" font-size="112" font-weight="700" fill="#FFFFFF"
          font-family="ui-sans-serif, -apple-system, 'Segoe UI', Roboto, sans-serif">₿</text>
    <circle cx="200" cy="200" r="52" fill="#FFFFFF"/>
    <g transform="translate(156 156) scale(0.5507)">
      <circle cx="79.9" cy="79.9" r="79.9" fill="#5546FF"/>
      <path fill="#FFFFFF" d="M112.5,122L95.3,95H120V84.8H39v10.2h24.7L46.5,122h12.8l20.2-31.7L99.7,122H112.5z
        M120,74.9V64.7H95.8l17-26.7H99.9L79.5,70.2L59.1,38H46.2l17,26.7H39V75L120,74.9L120,74.9z"/>
    </g>
  </g>
  <!-- Wordmark -->
  <text x="230" y="122" font-size="52" font-weight="700" letter-spacing="-1"
        font-family="ui-sans-serif, -apple-system, 'Segoe UI', Roboto, sans-serif" fill="#ECEEF3">Bitcoin Yield</text>
  <text x="230" y="176" font-size="52" font-weight="700" letter-spacing="-1"
        font-family="ui-sans-serif, -apple-system, 'Segoe UI', Roboto, sans-serif" fill="#8B93A3">Intelligence</text>
</svg>
